<svg width="43" height="48" viewBox="0 0 43 48" fill="none" xmlns="http://www.w3.org/2000/svg">
<path d="M2.18641 44.4566H24.7794C29.8728 44.4566 40.9229 37.2649 42.9896 25.9275C42.9928 25.909 42.9961 25.8905 42.9996 25.8721C42.9963 25.8905 42.9929 25.909 42.9896 25.9275C42.9507 26.1521 42.9324 26.3809 42.9293 26.6087C42.7745 38.0983 32.3503 47.3719 24.7794 47.3719H6.67285C5.88315 47.3719 5.11296 47.1421 4.46812 46.6862C3.06279 45.6927 1.48893 44.4566 2.18641 44.4566Z" fill="white"/>
<path d="M24.8844 0H4C1.79086 0 0 1.79086 0 4V38.2708C0 40.4799 1.79086 42.2708 4 42.2708H24.7226C25.149 42.2708 25.5729 42.2055 25.9739 42.0607C33.5234 39.3357 41.542 32.1362 41.542 21.1354C41.542 9.44145 31.4131 1.76781 25.8297 0.125077C25.5226 0.0347213 25.2045 0 24.8844 0Z" fill="white"/>
</svg>
