<svg width="64" height="70" viewBox="0 0 64 70" fill="none" xmlns="http://www.w3.org/2000/svg">
<path d="M3.22984 65.6768H36.6066C44.105 65.6768 60.3425 55.1259 63.4764 38.4775C63.4816 38.4451 63.4873 38.4127 63.4934 38.3804L63.5234 38.2217C63.5081 38.3071 63.4924 38.3924 63.4764 38.4775C63.4403 38.6989 63.4231 38.9239 63.4214 39.148C63.2889 56.1964 47.8267 69.9835 36.6067 69.9835H9.28319C8.49349 69.9835 7.72316 69.7527 7.07441 69.3024C4.90272 67.7951 2.12006 65.6768 3.22984 65.6768Z" fill="#329194"/>
<path d="M36.9919 0H4C1.79086 0 0 1.79086 0 4V58.4469C0 60.656 1.79086 62.4469 4 62.4469H36.8302C37.2565 62.4469 37.6787 62.3813 38.0811 62.24C49.3177 58.2952 61.3702 47.6162 61.3702 31.2235C61.3702 13.7898 46.1316 2.40452 37.9335 0.120364C37.6252 0.0344428 37.3121 0 36.9919 0Z" fill="#329194"/>
</svg>
