<svg width="357" height="595" viewBox="0 0 357 595" fill="none" xmlns="http://www.w3.org/2000/svg">
<path d="M70.8839 236.159C86.3704 248.405 81.6575 253.464 84.8609 269.532C85.4133 278.042 84.2543 297.025 75.1997 304.872C63.8814 314.681 65.1923 330.44 58.3145 348.747C51.4368 367.054 56.5328 383.431 53.4401 402.356C50.3474 421.282 54.1325 421.9 46.3269 445.885C38.5213 469.869 47.3655 475.201 56.2096 480.532C65.0538 485.863 76.0259 466.283 78.5 451.142C80.9742 436.002 85.6501 419.278 95.0759 409.16C102.616 401.066 105.376 409.548 105.813 414.801L101.174 443.189C99.6272 452.652 97.153 467.792 101.594 476.29C106.034 484.788 105.762 498.345 102.669 517.27C99.5764 536.196 96.5206 566.785 117.339 570.187C138.156 573.589 131.75 541.453 138.627 523.146C145.505 504.84 143.266 494.758 154.201 463.513C165.137 432.268 183.097 429.373 190.977 428.718C198.856 428.063 196.691 441.31 191.051 452.047C185.41 462.784 183.01 501.253 192.472 502.799C201.935 504.346 205.337 483.528 217.274 469.934C229.211 456.34 236.051 426.369 238.216 413.121C240.381 399.873 264.91 380.564 272.407 358.473C279.903 336.381 284.196 298.221 288.562 283.39C292.929 268.559 311.781 248.322 323.062 226.849C334.343 205.376 330.485 181.429 326.626 157.481L326.626 157.48C322.767 133.532 309.865 141.14 308.517 113.717C307.169 86.2935 300.218 81.2714 290.409 69.9531C280.6 58.6348 272.758 70.954 264.186 52.0656C255.614 33.1771 239.818 22.8236 226.261 22.5512C212.704 22.2789 200.73 24.2083 189.412 34.0172C178.094 43.8261 157.35 63.7538 147.578 64.0993C95.5154 65.9398 99.175 110.596 99.5212 120.368C99.8674 130.14 96.1562 152.85 84.1824 154.779C72.2087 156.709 60.618 180.075 58.7624 191.43C56.9068 202.785 55.3974 223.912 70.8839 236.159Z" fill="#B7B4B4"/>
<path d="M124.765 227.477C123.219 236.939 128.587 239.76 136.194 252.661C138.433 262.742 133.952 269.782 133.757 279.466C133.485 293.023 145.149 292.986 153.684 300.21C162.219 307.434 165.385 311.838 180.526 314.312C195.666 316.786 189.025 318.261 215.828 312.308C235.991 307.831 232.678 277.459 238.7 267.469C244.032 258.625 255.975 256.883 257.552 247.233C260.026 232.093 245.851 235.605 247.706 224.25C250.799 205.325 242.573 196.208 235.003 194.971C227.433 193.734 220.172 190.604 223.92 179.558C227.668 168.513 222.572 152.135 207.432 149.661C192.292 147.187 185.377 153.829 180.046 162.673C174.445 171.964 174.714 171.517 171.894 176.886C169.074 182.254 159.611 180.708 153.315 183.565C147.019 186.422 146.091 192.1 144.854 199.67C143.617 207.24 142.033 205.038 137.63 208.205C133.226 211.372 126.312 218.014 124.765 227.477Z" fill="#282828"/>
<path d="M129.529 138.876C129.801 125.319 140.811 117.402 152.166 119.258C164.485 127.1 162.939 136.562 161.393 146.025L161.393 146.026C159.846 155.489 150.421 165.607 139.375 161.859C128.329 158.11 129.257 152.433 129.529 138.876Z" fill="white"/>
<path d="M206.32 97.0184C206.901 81.5688 216.018 73.3432 227.373 75.1988C245.989 80.1841 242.86 87.4449 242.587 101.002C242.315 114.559 227.83 119.964 220.26 118.727C212.69 117.49 205.738 112.468 206.32 97.0184Z" fill="white"/>
<path d="M263.936 172.498C260.423 158.323 272.051 146.621 281.823 146.275C296.654 150.642 293.833 156.01 295.763 167.984C297.692 179.958 289.541 194.17 280.078 192.624C270.615 191.077 267.449 186.674 263.936 172.498Z" fill="white"/>
<circle cx="143.827" cy="143.823" r="5.75292" fill="#282828"/>
<circle cx="224.368" cy="101.635" r="5.75292" fill="#282828"/>
<circle cx="278.062" cy="170.671" r="5.75292" fill="#282828"/>
<path d="M155.332 293.4C149.579 289.564 145.743 287.647 141.908 281.894C141.908 274.223 149.579 272.306 153.414 272.306L168.755 266.553L164.92 283.811L178.343 270.388V293.4L187.932 276.141L193.684 293.4L201.355 276.141L210.943 295.317L216.696 278.059C219.892 283.811 224.367 293.4 224.367 297.235C224.367 299.947 222.449 304.906 218.614 306.823C213.762 309.249 209.026 308.741 201.355 308.741C193.684 308.741 187.423 309.85 184.096 308.741C178.343 306.823 174.508 306.823 168.755 302.988C163.002 299.153 161.085 297.235 155.332 293.4Z" fill="#B7B4B4"/>
</svg>
