<svg width="677" height="379" viewBox="0 0 677 379" fill="none" xmlns="http://www.w3.org/2000/svg">
<g filter="url(#filter0_d_85_80)">
<path d="M558.481 257.562C540.74 264.133 534.086 275.086 529.651 283.848C527.433 282.387 522.183 275.666 520.781 272.895C518.563 268.514 505.257 248.8 498.604 253.181C491.95 257.562 485.297 275.086 487.515 303.562C489.733 332.038 507.474 345.181 522.998 351.752C538.522 358.324 531.869 340.8 529.651 336.419C528.249 333.648 522.998 325.467 514.127 307.943C505.256 290.419 509.692 281.657 514.127 283.848C518.562 286.038 520.78 288.229 525.215 294.8C525.216 314.514 528.135 317.63 534.086 325.467C540.74 334.228 551.828 342.99 562.916 342.99C558.481 358.324 565.134 360.514 571.787 360.514C578.44 360.514 578.44 351.752 578.44 342.99C582.876 342.99 591.746 338.609 602.835 336.419C605.053 345.181 611.706 345.181 616.141 342.99C620.576 340.8 618.359 334.228 616.141 329.847C622.794 327.657 633.883 307.943 633.883 296.99C633.883 288.229 629.447 277.276 627.23 272.895C628.708 267.784 632.996 257.562 638.318 257.562C644.971 257.562 640.537 272.895 640.537 279.467C640.536 284.365 642.753 292.609 638.318 312.324C633.883 332.038 636.1 334.228 638.318 332.038C640.536 329.847 664.93 296.99 667.148 279.467C669.366 261.943 651.624 231.277 642.753 226.896C633.883 222.515 631.665 242.229 618.359 261.943C607.27 242.229 575.604 251.22 558.481 257.562Z" fill="#514D4D"/>
</g>
<path d="M555.277 314.492C550.723 314.492 548.445 319.286 548.445 324.08C549.204 327.276 553.911 333.668 557.554 333.668C562.108 333.668 566.663 329.44 566.663 324.08C566.663 316.889 559.831 314.492 555.277 314.492Z" fill="white"/>
<path d="M612.207 295.315C607.652 295.315 603.098 300.11 603.098 304.904C603.098 314.492 607.652 316.889 614.484 316.889C621.316 316.889 621.316 309.698 621.316 304.904C621.316 300.11 616.761 295.315 612.207 295.315Z" fill="white"/>
<path d="M431.243 245.95C417.944 252.597 373.614 261.46 338.15 259.245C342.582 283.617 341.101 303.566 338.15 307.991C333.716 314.639 322.634 327.933 300.469 327.933C278.304 327.933 282.737 312.422 289.386 312.422C296.036 312.422 291.603 314.639 307.118 314.639C319.531 314.639 324.111 304.298 324.85 299.128C318.201 301.344 303.129 305.332 296.036 303.559C287.17 301.344 278.304 292.481 287.17 288.05C296.036 283.619 298.252 290.265 300.469 290.265C302.685 290.265 302.685 296.913 315.984 292.481C329.283 288.048 324.85 274.754 322.634 259.245C260.572 259.245 247.273 223.792 240.624 214.929C220.834 188.551 220.675 146.24 227.325 124.083C227.325 124.083 215.535 113.182 205.16 108.572C185.211 99.7093 171.912 101.925 158.613 101.925C145.314 101.925 109.851 106.357 69.9537 126.298C30.0568 146.24 45.5733 124.083 52.2217 119.651C58.8702 115.22 76.6031 99.7093 120.933 95.2777C165.263 90.8462 134.232 81.9832 116.5 81.9832C98.7681 81.9832 67.7382 95.2777 45.5733 106.357C23.4084 117.436 -27.5709 115.22 18.9754 86.4147C65.5218 57.6098 111.874 48.7353 149.748 50.9625C187.428 53.1783 219.937 87.8918 236.192 108.572C252.446 94.5392 296.48 65.1434 342.583 59.8259C400.212 53.1789 431.243 75.3365 451.191 86.4147C457.102 77.5518 473.356 55.8374 491.088 39.8837C513.253 19.9416 550.933 0 579.748 0C608.562 0 626.294 6.64728 644.026 22.1576C661.758 37.6679 646.242 46.531 632.944 44.3152C619.645 42.0995 608.562 33.2364 564.232 33.2364C528.768 33.2364 508.081 50.9627 502.171 59.8259C511.775 55.3943 540.737 48.3039 579.748 55.3943C628.511 64.2574 610.779 88.631 604.129 88.631C597.48 88.631 544.284 73.1207 526.552 75.3365C508.82 77.5522 486.655 81.9837 468.923 106.357C502.171 179.477 473.356 212.714 455.624 232.656C437.892 252.597 451.191 252.597 455.624 288.05C460.057 323.502 437.892 332.365 426.81 336.796C415.727 341.228 404.645 323.502 424.593 321.286C440.552 319.513 443.064 304.298 442.325 296.913C440.848 302.083 435.232 312.866 424.593 314.639C411.294 316.854 393.562 299.128 417.944 296.913C442.325 294.697 431.243 268.108 431.243 245.95Z" fill="#D3D0D0"/>
<path d="M310.809 195.758C319.711 200.153 334.556 210.418 341.976 217.748C346.428 222.146 342.852 230.21 339.751 233.142C336.651 236.074 326.393 241.938 290.774 233.142C255.154 224.346 270.732 200.155 279.643 195.758C288.548 191.359 304.438 192.611 310.809 195.758Z" fill="#282828"/>
<path d="M428.795 169.368C415.438 182.562 410.985 197.956 410.985 211.15C410.985 215.548 415.438 217.749 422.116 217.748C428.795 217.747 434.731 213.35 437.7 211.15C441.359 208.439 451.502 200.155 462.188 182.562C475.545 160.572 462.188 149.576 455.509 149.576C448.831 149.576 442.152 156.173 428.795 169.368Z" fill="#282828"/>
<defs>
<filter id="filter0_d_85_80" x="477.928" y="226.279" width="198.562" height="152.539" filterUnits="userSpaceOnUse" color-interpolation-filters="sRGB">
<feFlood flood-opacity="0" result="BackgroundImageFix"/>
<feColorMatrix in="SourceAlpha" type="matrix" values="0 0 0 0 0 0 0 0 0 0 0 0 0 0 0 0 0 0 127 0" result="hardAlpha"/>
<feOffset dy="9.15208"/>
<feGaussianBlur stdDeviation="4.57604"/>
<feComposite in2="hardAlpha" operator="out"/>
<feColorMatrix type="matrix" values="0 0 0 0 0 0 0 0 0 0 0 0 0 0 0 0 0 0 0.25 0"/>
<feBlend mode="normal" in2="BackgroundImageFix" result="effect1_dropShadow_85_80"/>
<feBlend mode="normal" in="SourceGraphic" in2="effect1_dropShadow_85_80" result="shape"/>
</filter>
</defs>
</svg>
